<svg width="76" height="76" viewBox="0 0 76 76" fill="none" xmlns="http://www.w3.org/2000/svg">
<path d="M12.6667 53.8334H38.3167C39.5833 59.2167 44.65 63.3334 50.6667 63.3334C56.6833 63.3334 61.4333 59.2167 63.0167 53.8334H63.3333C65.2333 53.8334 66.5 52.5667 66.5 50.6667C66.5 48.7667 65.2333 47.5001 63.3333 47.5001H63.0167C61.75 42.1167 56.6833 38.0001 50.6667 38.0001C44.65 38.0001 39.9 42.1167 38.3167 47.5001H12.6667C10.7667 47.5001 9.5 48.7667 9.5 50.6667C9.5 52.5667 10.7667 53.8334 12.6667 53.8334ZM50.6667 44.3334C54.15 44.3334 57 47.1834 57 50.6667C57 54.1501 54.15 57.0001 50.6667 57.0001C47.1833 57.0001 44.3333 54.1501 44.3333 50.6667C44.3333 47.1834 47.1833 44.3334 50.6667 44.3334Z" fill="white"/>
<path d="M12.6667 28.5H12.9833C14.25 33.8834 19.3167 38 25.3333 38C31.35 38 36.1 33.8834 37.6833 28.5H63.3333C65.2333 28.5 66.5 27.2334 66.5 25.3334C66.5 23.4334 65.2333 22.1667 63.3333 22.1667H37.6833C36.4167 16.7834 31.35 12.6667 25.3333 12.6667C19.3167 12.6667 14.5667 16.7834 12.9833 22.1667H12.6667C10.7667 22.1667 9.5 23.4334 9.5 25.3334C9.5 27.2334 10.7667 28.5 12.6667 28.5ZM25.3333 19C28.8167 19 31.6667 21.85 31.6667 25.3334C31.6667 28.8167 28.8167 31.6667 25.3333 31.6667C21.85 31.6667 19 28.8167 19 25.3334C19 21.85 21.85 19 25.3333 19Z" fill="white"/>
</svg>